#!OML:ASF X:\für Bonn\!DataBase\2005_08_12_Daniel\c3d\Daniel.ASF
:FULLY-SPECIFIED
:DEGREES
31
root 16.1395 15.9639 16.655 884.411 -46.4654 -900.362
lowerback 39.4294 2.52623 2.84366
upperback 11.382 1.20416 -3.43289
thorax -6.37399 -0.401558 -5.46622
lowerneck -7.21605 -0.296678 -3.00426
upperneck -1.48316 -0.259247 -2.29964
head 0.735668 -0.204534 -0.216501
rclavicle 2.14687e-014 -2.8625e-014
rhumerus -33.1001 8.25957 -92.2033
rradius 66.8818
rwrist 4.55473
rhand -24.5423 18.0592
rfingers 7.12502
rthumb 1.95362 -11.9116
lclavicle 2.14687e-014 -2.8625e-014
lhumerus -31.1186 22.6943 76.3269
lradius 56.943
lwrist -8.77774
lhand -12.4486 -7.36964
lfingers 7.12502
lthumb 13.6246 22.1645
rfemur 7.18545 -2.66619 23.1264
rtibia 54.0159
rfoot -30.2749 3.43664
rtoes -8.67073
lfemur -30.5348 -9.39357 -17.5367
ltibia 34.6206
lfoot -21.1522 -0.61964
ltoes -18.1486
32
root 16.0285 15.9292 16.5592 884.294 -46.4737 -900.26
lowerback 39.4235 2.60207 2.89412
upperback 11.3737 1.31461 -3.48352
thorax -6.36794 -0.345722 -5.58947
lowerneck -7.59265 -0.373519 -3.29716
upperneck -1.22109 -0.314282 -1.99329
head 0.883855 -0.232694 -0.0762142
rclavicle 1.15295e-014 5.56597e-015
rhumerus -33.0334 8.29781 -92.1891
rradius 67.0285
rwrist 4.53051
rhand -24.8403 18.0146
rfingers 7.12502
rthumb 1.66582 -11.9586
lclavicle 1.15295e-014 5.56597e-015
lhumerus -31.3312 22.9315 76.1776
lradius 57.2644
lwrist -8.74489
lhand -12.7409 -7.08254
lfingers 7.12502
lthumb 13.3429 22.4703
rfemur 7.88013 -2.91587 22.9884
rtibia 53.8984
rfoot -30.4107 3.69759
rtoes -8.94932
lfemur -30.5832 -9.2571 -17.5101
ltibia 34.3439
lfoot -21.3457 -0.179909
ltoes -18.9629
33
root 15.9161 15.896 16.4634 884.194 -46.516 -900.191
lowerback 39.4595 2.66887 2.91695
upperback 11.355 1.4022 -3.54236
thorax -6.38987 -0.301893 -5.69876
lowerneck -7.97209 -0.43694 -3.44638
upperneck -0.913001 -0.359555 -1.85847
head 1.04819 -0.259706 -0.0118159
rclavicle -2.50469e-014 2.3059e-014
rhumerus -32.914 8.30875 -92.1922
rradius 67.0893
rwrist 4.59471
rhand -25.1083 17.9476
rfingers 7.12502
rthumb 1.40698 -12.0275
lclavicle -2.50469e-014 2.3059e-014
lhumerus -31.6139 23.0351 76.0066
lradius 57.6273
lwrist -8.67896
lhand -13.2147 -6.63269
lfingers 7.12502
lthumb 12.8862 22.9495
rfemur 8.59803 -3.11853 22.8169
rtibia 53.7749
rfoot -30.4749 4.02007
rtoes -8.81824
lfemur -30.6088 -9.08885 -17.5369
ltibia 34.2054
lfoot -21.3734 0.104257
ltoes -18.7233
34
root 15.8026 15.8632 16.3676 884.074 -46.5391 -900.025
lowerback 39.4416 2.71264 3.01013
upperback 11.3439 1.49223 -3.5871
thorax -6.38328 -0.254287 -5.83042
lowerneck -8.17351 -0.515456 -3.64261
upperneck -0.820905 -0.437589 -1.68667
head 1.11438 -0.298279 0.0713979
rclavicle 3.4191e-014 -1.27222e-014
rhumerus -32.7918 8.21939 -92.2277
rradius 67.1974
rwrist 4.7683
rhand -25.3677 17.9128
rfingers 7.12502
rthumb 1.15645 -12.0638
lclavicle 3.4191e-014 -1.27222e-014
lhumerus -31.8383 23.1351 75.8628
lradius 57.8837
lwrist -8.59937
lhand -13.7512 -6.27069
lfingers 7.12502
lthumb 12.369 23.3434
rfemur 9.27249 -3.3167 22.7478
rtibia 53.6186
rfoot -30.5567 4.26895
rtoes -8.78713
lfemur -30.7192 -8.98625 -17.4491
ltibia 34.229
lfoot -21.1304 0.307173
ltoes -17.2508
35
root 15.689 15.8296 16.2725 883.974 -46.5483 -899.928
lowerback 39.508 2.76733 3.06656
upperback 11.3161 1.574 -3.67016
thorax -6.42368 -0.213116 -5.98181
lowerneck -8.36528 -0.56954 -3.75467
upperneck -0.640583 -0.485049 -1.54353
head 1.20718 -0.322291 0.132872
rclavicle 4.81059e-014 -4.92986e-014
rhumerus -32.6411 8.07292 -92.3541
rradius 67.2177
rwrist 5.01396
rhand -25.6409 17.7827
rfingers 7.12502
rthumb 0.892527 -12.1951
lclavicle 4.81059e-014 -4.92986e-014
lhumerus -32.0187 23.2633 75.6435
lradius 58.0244
lwrist -8.7018
lhand -14.3713 -5.95935
lfingers 7.12502
lthumb 11.771 23.6899
rfemur 9.97558 -3.47738 22.6205
rtibia 53.4722
rfoot -30.6408 4.49747
rtoes -8.71611
lfemur -30.791 -8.88138 -17.4136
ltibia 34.3944
lfoot -20.7087 0.468328
ltoes -15.1332
36
root 15.5735 15.7984 16.1761 883.877 -46.5738 -899.822
lowerback 39.5388 2.83999 3.10653
upperback 11.31 1.67579 -3.70387
thorax -6.42691 -0.163213 -6.07852
lowerneck -8.47702 -0.620184 -3.87023
upperneck -0.568156 -0.53563 -1.43172
head 1.25166 -0.346857 0.185272
rclavicle -1.82882e-014 1.98785e-014
rhumerus -32.4675 7.88885 -92.4177
rradius 67.195
rwrist 5.25721
rhand -25.897 17.6465
rfingers 7.12502
rthumb 0.64518 -12.3323
lclavicle -1.82882e-014 1.98785e-014
lhumerus -32.2038 23.5457 75.5116
lradius 58.1807
lwrist -8.94227
lhand -14.9055 -5.62749
lfingers 7.12502
lthumb 11.2559 24.0505
rfemur 10.6878 -3.63881 22.5123
rtibia 53.297
rfoot -30.6773 4.70104
rtoes -8.88295
lfemur -30.8857 -8.7217 -17.3886
ltibia 34.7247
lfoot -20.123 0.450123
ltoes -12.631
37
root 15.4575 15.7654 16.0801 883.837 -46.6097 -899.723
lowerback 39.5762 2.889 3.14877
upperback 11.2751 1.7518 -3.76664
thorax -6.46671 -0.123811 -6.19866
lowerneck -8.55066 -0.67905 -3.99472
upperneck -0.509691 -0.598476 -1.29413
head 1.28563 -0.376301 0.246925
rclavicle -7.87187e-014 3.97569e-014
rhumerus -32.3936 7.72074 -92.5127
rradius 67.2532
rwrist 5.44973
rhand -26.1795 17.5185
rfingers 7.12502
rthumb 0.37237 -12.4609
lclavicle -7.87187e-014 3.97569e-014
lhumerus -32.3956 23.9622 75.319
lradius 58.3088
lwrist -9.33749
lhand -15.445 -5.47336
lfingers 7.12502
lthumb 10.7356 24.2323
rfemur 11.327 -3.80519 22.3831
rtibia 53.1548
rfoot -30.7163 4.92303
rtoes -8.80833
lfemur -31.0826 -8.39093 -17.4187
ltibia 35.1877
lfoot -19.3417 0.145889
ltoes -10.6257
38
root 15.3405 15.7343 15.9833 883.82 -46.6296 -899.656
lowerback 39.6265 2.95847 3.13925
upperback 11.2142 1.83946 -3.81144
thorax -6.54001 -0.0799172 -6.27749
lowerneck -8.39186 -0.725775 -4.17216
upperneck -0.59397 -0.65577 -1.15208
head 1.23346 -0.399361 0.319351
rclavicle 7.31528e-014 -3.10104e-014
rhumerus -32.334 7.57279 -92.6048
rradius 67.2021
rwrist 5.7015
rhand -26.4918 17.4073
rfingers 7.12502
rthumb 0.0707021 -12.5725
lclavicle 7.31528e-014 -3.10104e-014
lhumerus -32.6206 24.3932 75.1208
lradius 58.3877
lwrist -9.80662
lhand -16.0775 -5.18446
lfingers 7.12502
lthumb 10.1254 24.5519
rfemur 11.9863 -3.89123 22.2861
rtibia 52.9953
rfoot -30.7346 5.04377
rtoes -8.80974
lfemur -31.3089 -7.87749 -17.5299
ltibia 35.7903
lfoot -18.5252 -0.255854
ltoes -10.2023
39
root 15.2228 15.7032 15.8865 883.855 -46.6707 -899.596
lowerback 39.6253 3.02884 3.13698
upperback 11.2021 1.92109 -3.87688
thorax -6.5429 -0.0382284 -6.37864
lowerneck -8.41968 -0.773194 -4.21779
upperneck -0.591049 -0.714263 -1.06988
head 1.24104 -0.426885 0.350667
rclavicle -9.14409e-015 5.64548e-014
rhumerus -32.2469 7.41552 -92.7297
rradius 67.1852
rwrist 5.83499
rhand -26.8773 17.2958
rfingers 7.12502
rthumb -0.301577 -12.6837
lclavicle -9.14409e-015 5.64548e-014
lhumerus -32.7348 24.8787 74.938
lradius 58.4782
lwrist -10.2582
lhand -16.628 -5.04193
lfingers 7.12502
lthumb 9.59428 24.7196
rfemur 12.5758 -3.95968 22.1893
rtibia 52.8502
rfoot -30.737 5.19602
rtoes -8.55628
lfemur -31.6161 -7.34868 -17.6607
ltibia 36.5231
lfoot -17.6174 -0.699175
ltoes -10.5885
40
root 15.105 15.6749 15.7884 883.946 -46.7153 -899.547
lowerback 39.6279 3.11762 3.05967
upperback 11.1286 2.01484 -3.90073
thorax -6.61704 0.00937907 -6.4016
lowerneck -8.28587 -0.812948 -4.33286
upperneck -0.65724 -0.765881 -0.990515
head 1.19862 -0.449077 0.393205
rclavicle -1.19271e-014 1.00187e-013
rhumerus -32.2457 7.30453 -92.7883
rradius 67.1686
rwrist 6.01991
rhand -27.172 17.1684
rfingers 7.12502
rthumb -0.586248 -12.8105
lclavicle -1.19271e-014 1.00187e-013
lhumerus -32.9785 25.4009 74.7577
lradius 58.5613
lwrist -10.7983
lhand -17.2083 -4.80071
lfingers 7.12502
lthumb 9.03432 24.9858
rfemur 13.1349 -4.02099 22.1248
rtibia 52.6851
rfoot -30.7467 5.2108
rtoes -8.60754
lfemur -31.9996 -6.71503 -17.8246
ltibia 37.3674
lfoot -16.5938 -1.19269
ltoes -10.8147
41
root 14.9854 15.6481 15.6899 884.106 -46.7512 -899.558
lowerback 39.6432 3.20073 2.9944
upperback 11.0404 2.10018 -3.98589
thorax -6.71158 0.0544574 -6.49468
lowerneck -8.12919 -0.868055 -4.3834
upperneck -0.7405 -0.845386 -0.907828
head 1.14706 -0.484611 0.424964
rclavicle -2.22639e-014 4.13472e-014
rhumerus -32.2363 7.08844 -92.9439
rradius 67.1303
rwrist 6.13057
rhand -27.5399 17.1005
rfingers 7.12502
rthumb -0.941547 -12.8771
lclavicle -2.22639e-014 4.13472e-014
lhumerus -33.183 25.8619 74.5474
lradius 58.6785
lwrist -11.2299
lhand -17.7658 -4.5564
lfingers 7.12502
lthumb 8.49635 25.2527
rfemur 13.6543 -4.01842 22.0303
rtibia 52.5631
rfoot -30.7809 5.26425
rtoes -8.5051
lfemur -32.4895 -6.05877 -18.0505
ltibia 38.4159
lfoot -15.4945 -1.68873
ltoes -11.2217
42
root 14.8654 15.6225 15.592 884.296 -46.8169 -899.576
lowerback 39.6358 3.30443 2.85055
upperback 10.9788 2.18474 -4.00334
thorax -6.77339 0.0964102 -6.47204
lowerneck -8.03557 -0.91179 -4.58736
upperneck -0.849394 -0.896006 -0.754829
head 1.09974 -0.504903 0.505605
rclavicle 2.38542e-015 6.20208e-014
rhumerus -32.2589 7.04532 -92.9659
rradius 67.1724
rwrist 6.17356
rhand -27.8822 16.927
rfingers 7.12502
rthumb -1.27213 -13.049
lclavicle 2.38542e-015 6.20208e-014
lhumerus -33.3783 26.4035 74.4228
lradius 58.8251
lwrist -11.668
lhand -18.3184 -4.2648
lfingers 7.12502
lthumb 7.96308 25.5652
rfemur 14.1372 -4.01261 21.9513
rtibia 52.4366
rfoot -30.767 5.29547
rtoes -8.37597
lfemur -33.0264 -5.3876 -18.2989
ltibia 39.5393
lfoot -14.3533 -2.18352
ltoes -12.2821
43
root 14.7435 15.5748 15.4893 884.485 -46.8504 -899.601
lowerback 39.6168 3.43694 2.67949
upperback 10.92 2.28976 -4.04401
thorax -6.82697 0.147892 -6.46785
lowerneck -7.95628 -0.961825 -4.63284
upperneck -0.909133 -0.965174 -0.677527
head 1.06938 -0.536505 0.535224
rclavicle -3.53837e-014 -3.10104e-014
rhumerus -32.3136 6.96452 -93.0612
rradius 67.2443
rwrist 6.12095
rhand -28.2663 16.6921
rfingers 7.12502
rthumb -1.64314 -13.2814
lclavicle -3.53837e-014 -3.10104e-014
lhumerus -33.5475 26.8771 74.2596
lradius 58.9755
lwrist -11.9382
lhand -19.004 -4.04021
lfingers 7.12502
lthumb 7.30125 25.8138
rfemur 14.61 -3.94625 21.9336
rtibia 52.3831
rfoot -30.7827 5.22854
rtoes -8.33528
lfemur -33.6619 -4.6058 -18.5428
ltibia 40.7932
lfoot -13.1573 -2.75508
ltoes -12.2769
